# xmcd CD database file
#
# Track frame offsets:
#	150
#	14813
#	32079
#	48172
#	64272
#	78218
#	95007
#	109212
#	124887
#	140948
#	154975
#	168767
#
# Disc length: 2404 seconds
#
# Revision: 0
# Processed by: cddbd v1.5.2PL0 Copyright (c) Steve Scherf et al.
# Submitted via: CDex 1.79
#
DISCID=a709620c
DTITLE=Rick Sharp - Rick and Ol` Waylon Still Play On
DYEAR=2007
DGENRE=Country
TTITLE0=Thanks For Nothin` 
TTITLE1=One Shot At A Time
TTITLE2=Storms Never Last
TTITLE3=No Place To Go
TTITLE4=Waylon Still Plays On
TTITLE5=Wish You Were Here
TTITLE6=That`s All She Wrote
TTITLE7=Countrified
TTITLE8=Last Broken Heart
TTITLE9=East Street
TTITLE10=Let`s Get Even
TTITLE11=Love At First Sight Kinda Girl
EXTD=YEAR: 2007
EXTT0=
EXTT1=
EXTT2=
EXTT3=
EXTT4=
EXTT5=
EXTT6=
EXTT7=
EXTT8=
EXTT9=
EXTT10=
EXTT11=
PLAYORDER=
